Normalized EMG Linear Envelopes
nRows=65
nColumns=17

endheader
time	        VM	        VL	        RF	       GRA	        TA	   ADDLONG	   SEMIMEM	      BFLH	        GM	        GL	       TFL	   GLUTMAX	   GLUTMED	      PIRI	    OBTINT	        QF	
2.1025	  0.044016	  0.044173	  0.266534	  0.055195	  0.345090	  0.013015	  0.002644	  0.008285	  0.017550	  0.018755	  0.074899	  0.039533	  0.191070	  0.290518	  0.643667	  0.253970	
2.103	  0.044156	  0.044384	  0.267665	  0.053987	  0.343220	  0.012930	  0.002321	  0.007809	  0.017247	  0.018571	  0.073174	  0.039583	  0.190960	  0.291034	  0.649022	  0.256560	
2.1035	  0.044305	  0.044595	  0.268764	  0.052802	  0.341360	  0.012848	  0.002006	  0.007342	  0.016945	  0.018389	  0.071478	  0.039641	  0.190851	  0.291499	  0.654325	  0.259161	
2.104	  0.044463	  0.044806	  0.269827	  0.051639	  0.339510	  0.012769	  0.001699	  0.006884	  0.016645	  0.018208	  0.069811	  0.039705	  0.190743	  0.291913	  0.659576	  0.261774	
2.1045	  0.044628	  0.045017	  0.270853	  0.050498	  0.337670	  0.012693	  0.001400	  0.006436	  0.016346	  0.018027	  0.068174	  0.039776	  0.190637	  0.292276	  0.664772	  0.264398	
2.105	  0.044802	  0.045227	  0.271839	  0.049379	  0.335839	  0.012620	  0.001110	  0.005997	  0.016048	  0.017848	  0.066565	  0.039855	  0.190534	  0.292587	  0.669913	  0.267034	
2.1055	  0.044983	  0.045437	  0.272785	  0.048283	  0.334018	  0.012549	  0.000829	  0.005569	  0.015753	  0.017670	  0.064986	  0.039941	  0.190434	  0.292847	  0.674995	  0.269681	
2.106	  0.045172	  0.045645	  0.273688	  0.047209	  0.332206	  0.012481	  0.000556	  0.005151	  0.015459	  0.017493	  0.063435	  0.040035	  0.190338	  0.293057	  0.680019	  0.272340	
2.1065	  0.045368	  0.045852	  0.274546	  0.046157	  0.330403	  0.012416	  0.000293	  0.004743	  0.015167	  0.017317	  0.061912	  0.040137	  0.190247	  0.293216	  0.684982	  0.275010	
2.107	  0.045571	  0.046058	  0.275357	  0.045129	  0.328609	  0.012353	  0.000039	  0.004347	  0.014878	  0.017143	  0.060418	  0.040248	  0.190162	  0.293327	  0.689882	  0.277691	
2.1075	  0.045782	  0.046261	  0.276121	  0.044122	  0.326824	  0.012293	  0.000000	  0.003961	  0.014590	  0.016969	  0.058953	  0.040368	  0.190083	  0.293390	  0.694718	  0.280383	
2.108	  0.045998	  0.046462	  0.276834	  0.043138	  0.325048	  0.012235	  0.000000	  0.003586	  0.014305	  0.016798	  0.057515	  0.040497	  0.190011	  0.293406	  0.699487	  0.283086	
2.1085	  0.046222	  0.046660	  0.277497	  0.042177	  0.323280	  0.012179	  0.000000	  0.003223	  0.014022	  0.016628	  0.056105	  0.040635	  0.189946	  0.293378	  0.704187	  0.285800	
2.109	  0.046451	  0.046855	  0.278107	  0.041238	  0.321521	  0.012126	  0.000000	  0.002872	  0.013741	  0.016459	  0.054723	  0.040782	  0.189889	  0.293307	  0.708816	  0.288524	
2.1095	  0.046686	  0.047047	  0.278664	  0.040322	  0.319771	  0.012074	  0.000000	  0.002532	  0.013463	  0.016292	  0.053368	  0.040940	  0.189842	  0.293192	  0.713372	  0.291257	
2.11	  0.046926	  0.047235	  0.279166	  0.039428	  0.318030	  0.012025	  0.000000	  0.002205	  0.013188	  0.016126	  0.052040	  0.041107	  0.189804	  0.293037	  0.717852	  0.294000	
2.1105	  0.047172	  0.047419	  0.279614	  0.038556	  0.316299	  0.011978	  0.000000	  0.001890	  0.012915	  0.015962	  0.050739	  0.041284	  0.189777	  0.292842	  0.722254	  0.296752	
2.111	  0.047423	  0.047598	  0.280004	  0.037707	  0.314577	  0.011932	  0.000000	  0.001588	  0.012646	  0.015800	  0.049465	  0.041472	  0.189762	  0.292608	  0.726576	  0.299512	
2.1115	  0.047678	  0.047772	  0.280337	  0.036880	  0.312865	  0.011889	  0.000000	  0.001299	  0.012379	  0.015640	  0.048217	  0.041671	  0.189759	  0.292337	  0.730815	  0.302280	
2.112	  0.047937	  0.047941	  0.280611	  0.036075	  0.311161	  0.011847	  0.000000	  0.001023	  0.012116	  0.015482	  0.046995	  0.041881	  0.189769	  0.292028	  0.734969	  0.305056	
2.1125	  0.048201	  0.048104	  0.280826	  0.035293	  0.309468	  0.011808	  0.000000	  0.000761	  0.011856	  0.015325	  0.045799	  0.042101	  0.189793	  0.291685	  0.739036	  0.307838	
2.113	  0.048467	  0.048261	  0.280981	  0.034533	  0.307783	  0.011770	  0.000000	  0.000512	  0.011599	  0.015171	  0.044629	  0.042333	  0.189832	  0.291306	  0.743013	  0.310628	
2.1135	  0.048738	  0.048412	  0.281075	  0.033795	  0.306108	  0.011733	  0.000000	  0.000277	  0.011346	  0.015018	  0.043483	  0.042576	  0.189887	  0.290893	  0.746896	  0.313426	
2.114	  0.049011	  0.048556	  0.281107	  0.033080	  0.304442	  0.011699	  0.000000	  0.000057	  0.011096	  0.014867	  0.042362	  0.042832	  0.189958	  0.290447	  0.750682	  0.316230	
2.1145	  0.049286	  0.048693	  0.281079	  0.032386	  0.302786	  0.011666	  0.000000	  0.000000	  0.010850	  0.014719	  0.041266	  0.043099	  0.190047	  0.289969	  0.754369	  0.319041	
2.115	  0.049564	  0.048822	  0.280990	  0.031715	  0.301138	  0.011634	  0.000000	  0.000000	  0.010608	  0.014572	  0.040193	  0.043378	  0.190154	  0.289460	  0.757953	  0.321859	
2.1155	  0.049844	  0.048944	  0.280840	  0.031065	  0.299499	  0.011604	  0.000000	  0.000000	  0.010370	  0.014428	  0.039145	  0.043669	  0.190279	  0.288921	  0.761432	  0.324685	
2.116	  0.050125	  0.049058	  0.280631	  0.030438	  0.297869	  0.011575	  0.000000	  0.000000	  0.010135	  0.014286	  0.038119	  0.043973	  0.190425	  0.288352	  0.764801	  0.327519	
2.1165	  0.050407	  0.049164	  0.280361	  0.029832	  0.296247	  0.011548	  0.000000	  0.000000	  0.009905	  0.014146	  0.037117	  0.044290	  0.190591	  0.287755	  0.768059	  0.330361	
2.117	  0.050690	  0.049261	  0.280033	  0.029247	  0.294632	  0.011522	  0.000000	  0.000000	  0.009679	  0.014008	  0.036137	  0.044619	  0.190778	  0.287132	  0.771203	  0.333210	
2.1175	  0.050973	  0.049350	  0.279646	  0.028685	  0.293024	  0.011498	  0.000000	  0.000000	  0.009457	  0.013872	  0.035179	  0.044961	  0.190987	  0.286482	  0.774230	  0.336067	
2.118	  0.051257	  0.049431	  0.279201	  0.028144	  0.291423	  0.011475	  0.000000	  0.000000	  0.009239	  0.013739	  0.034244	  0.045317	  0.191219	  0.285808	  0.777138	  0.338932	
2.1185	  0.051540	  0.049502	  0.278698	  0.027624	  0.289827	  0.011453	  0.000000	  0.000000	  0.009026	  0.013608	  0.033330	  0.045686	  0.191474	  0.285111	  0.779924	  0.341804	
2.119	  0.051823	  0.049564	  0.278137	  0.027126	  0.288236	  0.011433	  0.000000	  0.000000	  0.008818	  0.013479	  0.032436	  0.046068	  0.191753	  0.284393	  0.782585	  0.344684	
2.1195	  0.052104	  0.049618	  0.277519	  0.026649	  0.286648	  0.011414	  0.000000	  0.000000	  0.008614	  0.013353	  0.031564	  0.046463	  0.192056	  0.283655	  0.785121	  0.347570	
2.12	  0.052385	  0.049662	  0.276845	  0.026193	  0.285064	  0.011396	  0.000000	  0.000000	  0.008415	  0.013229	  0.030712	  0.046872	  0.192385	  0.282898	  0.787527	  0.350464	
2.1205	  0.052663	  0.049696	  0.276113	  0.025758	  0.283482	  0.011380	  0.000000	  0.000000	  0.008222	  0.013107	  0.029879	  0.047295	  0.192738	  0.282125	  0.789803	  0.353365	
2.121	  0.052940	  0.049721	  0.275326	  0.025344	  0.281900	  0.011365	  0.000000	  0.000000	  0.008033	  0.012988	  0.029067	  0.047732	  0.193118	  0.281336	  0.791945	  0.356271	
2.1215	  0.053214	  0.049735	  0.274482	  0.024950	  0.280318	  0.011352	  0.000000	  0.000000	  0.007849	  0.012871	  0.028273	  0.048182	  0.193525	  0.280534	  0.793951	  0.359183	
2.122	  0.053485	  0.049740	  0.273582	  0.024578	  0.278735	  0.011340	  0.000000	  0.000000	  0.007671	  0.012757	  0.027498	  0.048646	  0.193959	  0.279720	  0.795818	  0.362101	
2.1225	  0.053753	  0.049735	  0.272626	  0.024226	  0.277148	  0.011329	  0.000000	  0.000000	  0.007498	  0.012645	  0.026741	  0.049124	  0.194420	  0.278895	  0.797544	  0.365023	
2.123	  0.054017	  0.049719	  0.271616	  0.023894	  0.275558	  0.011319	  0.000000	  0.000000	  0.007330	  0.012535	  0.026002	  0.049616	  0.194909	  0.278060	  0.799127	  0.367949	
2.1235	  0.054277	  0.049693	  0.270551	  0.023583	  0.273961	  0.011311	  0.000000	  0.000000	  0.007169	  0.012428	  0.025281	  0.050122	  0.195427	  0.277218	  0.800564	  0.370878	
2.124	  0.054532	  0.049656	  0.269432	  0.023292	  0.272358	  0.011304	  0.000000	  0.000000	  0.007013	  0.012323	  0.024577	  0.050641	  0.195973	  0.276369	  0.801856	  0.373811	
2.1245	  0.054783	  0.049609	  0.268260	  0.023021	  0.270747	  0.011299	  0.000000	  0.000000	  0.006863	  0.012221	  0.023890	  0.051175	  0.196549	  0.275514	  0.803002	  0.376745	
2.125	  0.055029	  0.049551	  0.267036	  0.022770	  0.269126	  0.011295	  0.000000	  0.000000	  0.006720	  0.012122	  0.023219	  0.051722	  0.197154	  0.274655	  0.804004	  0.379681	
2.1255	  0.055269	  0.049484	  0.265761	  0.022539	  0.267494	  0.011292	  0.000000	  0.000000	  0.006582	  0.012024	  0.022564	  0.052283	  0.197789	  0.273792	  0.804861	  0.382619	
2.126	  0.055503	  0.049406	  0.264436	  0.022328	  0.265849	  0.011291	  0.000046	  0.000000	  0.006451	  0.011930	  0.021924	  0.052858	  0.198454	  0.272928	  0.805576	  0.385556	
2.1265	  0.055732	  0.049318	  0.263062	  0.022136	  0.264191	  0.011291	  0.000380	  0.000014	  0.006327	  0.011838	  0.021301	  0.053446	  0.199149	  0.272062	  0.806150	  0.388494	
2.127	  0.055954	  0.049220	  0.261640	  0.021964	  0.262519	  0.011293	  0.000735	  0.000266	  0.006210	  0.011748	  0.020692	  0.054048	  0.199874	  0.271198	  0.806583	  0.391431	
2.1275	  0.056169	  0.049112	  0.260172	  0.021811	  0.260830	  0.011296	  0.001113	  0.000540	  0.006099	  0.011661	  0.020098	  0.054663	  0.200630	  0.270335	  0.806878	  0.394366	
2.128	  0.056378	  0.048994	  0.258658	  0.021677	  0.259125	  0.011301	  0.001513	  0.000837	  0.005996	  0.011576	  0.019518	  0.055292	  0.201417	  0.269475	  0.807034	  0.397299	
2.1285	  0.056580	  0.048867	  0.257099	  0.021562	  0.257402	  0.011307	  0.001936	  0.001157	  0.005899	  0.011494	  0.018952	  0.055934	  0.202234	  0.268620	  0.807052	  0.400228	
2.129	  0.056774	  0.048730	  0.255497	  0.021466	  0.255660	  0.011315	  0.002382	  0.001500	  0.005811	  0.011414	  0.018401	  0.056589	  0.203082	  0.267772	  0.806934	  0.403153	
2.1295	  0.056961	  0.048583	  0.253852	  0.021389	  0.253900	  0.011324	  0.002852	  0.001867	  0.005729	  0.011336	  0.017863	  0.057256	  0.203961	  0.266931	  0.806679	  0.406072	
2.13	  0.057139	  0.048427	  0.252166	  0.021330	  0.252119	  0.011335	  0.003345	  0.002258	  0.005656	  0.011262	  0.017338	  0.057937	  0.204869	  0.266099	  0.806289	  0.408986	
2.1305	  0.057310	  0.048262	  0.250441	  0.021290	  0.250318	  0.011347	  0.003863	  0.002673	  0.005590	  0.011189	  0.016826	  0.058630	  0.205808	  0.265278	  0.805765	  0.411891	
2.131	  0.057472	  0.048087	  0.248676	  0.021268	  0.248495	  0.011361	  0.004406	  0.003113	  0.005533	  0.011119	  0.016328	  0.059335	  0.206776	  0.264468	  0.805108	  0.414788	
2.1315	  0.057625	  0.047903	  0.246874	  0.021265	  0.246650	  0.011377	  0.004974	  0.003578	  0.005484	  0.011052	  0.015842	  0.060052	  0.207774	  0.263671	  0.804320	  0.417676	
2.132	  0.057769	  0.047710	  0.245034	  0.021279	  0.244782	  0.011395	  0.005567	  0.004068	  0.005443	  0.010987	  0.015368	  0.060781	  0.208800	  0.262889	  0.803401	  0.420553	
2.1325	  0.057904	  0.047508	  0.243159	  0.021312	  0.242892	  0.011415	  0.006187	  0.004584	  0.005411	  0.010924	  0.014907	  0.061522	  0.209856	  0.262121	  0.802355	  0.423419	
2.133	  0.058029	  0.047297	  0.241249	  0.021362	  0.240977	  0.011436	  0.006832	  0.005127	  0.005387	  0.010864	  0.014458	  0.062273	  0.210939	  0.261369	  0.801183	  0.426271	
2.1335	  0.058144	  0.047076	  0.239304	  0.021430	  0.239039	  0.011459	  0.007505	  0.005696	  0.005372	  0.010806	  0.014021	  0.063036	  0.212050	  0.260635	  0.799890	  0.429109	
2.134	  0.058249	  0.046847	  0.237326	  0.021515	  0.237077	  0.011485	  0.008205	  0.006291	  0.005367	  0.010751	  0.013595	  0.063810	  0.213187	  0.259918	  0.798477	  0.431931	
2.1345	  0.058343	  0.046610	  0.235315	  0.021618	  0.235093	  0.011512	  0.008932	  0.006914	  0.005370	  0.010698	  0.013181	  0.064594	  0.214351	  0.259221	  0.796949	  0.434735	
